<?xml version="1.0" encoding="UTF-8" standalone="no"?>
<!DOCTYPE svg PUBLIC "-//W3C//DTD SVG 1.1//EN" "http://www.w3.org/Graphics/SVG/1.1/DTD/svg11.dtd">
<svg width="100%" height="100%" viewBox="0 0 2000 2000" version="1.1" xmlns="http://www.w3.org/2000/svg" xmlns:xlink="http://www.w3.org/1999/xlink" xml:space="preserve" xmlns:serif="http://www.serif.com/" style="fill-rule:evenodd;clip-rule:evenodd;stroke-linejoin:round;stroke-miterlimit:2;">
    <g>
        <g transform="matrix(10.119619,0,0,10.119619,-3129.832,-6199.389545)">
            <path d="M416.145,628.65L418.795,641.549C423.922,642.333 428.948,643.68 433.781,645.564L442.525,635.718C447.418,637.943 452.084,640.637 456.457,643.762L452.302,656.257C456.351,659.501 460.03,663.18 463.273,667.228L475.769,663.073C478.894,667.447 481.587,672.112 483.812,677.005L473.966,685.749C475.851,690.582 477.197,695.608 477.982,700.736L490.881,703.385C491.401,708.735 491.401,714.123 490.881,719.473L477.982,722.122C477.197,727.25 475.851,732.275 473.966,737.108L483.812,745.853C481.587,750.746 478.894,755.411 475.769,759.785L463.273,755.63C460.03,759.678 456.351,763.357 452.302,766.6L456.457,779.096C452.084,782.221 447.418,784.915 442.525,787.14L433.781,777.294C428.948,779.178 423.922,780.525 418.795,781.309L416.145,794.208C410.795,794.728 405.408,794.728 400.058,794.208L397.408,781.309C392.281,780.525 387.255,779.178 382.422,777.294L373.678,787.14C368.785,784.915 364.119,782.221 359.746,779.096L363.901,766.6C359.852,763.357 356.173,759.678 352.93,755.63L340.435,759.785C337.309,755.411 334.616,750.746 332.391,745.853L342.237,737.108C340.353,732.275 339.006,727.25 338.221,722.122L325.322,719.473C324.803,714.123 324.803,708.735 325.322,703.385L338.221,700.736C339.006,695.608 340.353,690.582 342.237,685.749L332.391,677.005C334.616,672.112 337.309,667.447 340.435,663.073L352.93,667.228C356.173,663.18 359.852,659.501 363.901,656.257L359.746,643.762C364.119,640.637 368.785,637.943 373.678,635.718L382.422,645.564C387.255,643.68 392.281,642.333 397.408,641.549L400.058,628.65C405.408,628.13 410.795,628.13 416.145,628.65ZM362.852,756.679C387.826,781.652 428.377,781.652 453.351,756.679C478.325,731.705 478.325,691.153 453.351,666.179C428.377,641.205 387.826,641.205 362.852,666.179C337.878,691.153 337.878,731.705 362.852,756.679ZM374.164,745.366C355.434,726.636 355.434,696.222 374.164,677.492C392.895,658.761 423.308,658.761 442.039,677.492C460.769,696.222 460.769,726.636 442.039,745.366C423.308,764.097 392.895,764.097 374.164,745.366ZM408.102,694.795C398.921,694.795 391.468,702.248 391.468,711.429C391.468,720.609 398.921,728.063 408.102,728.063C417.282,728.063 424.735,720.609 424.735,711.429C424.735,702.248 417.282,694.795 408.102,694.795Z" style="fill:rgb(139,0,0);"/>
        </g>
        <g transform="matrix(7.286161,0,0,10.119619,-1617.191435,-6125.642789)">
            <rect x="280.999" y="679.416" width="156.402" height="49.451" style="fill:rgb(139,0,0);"/>
        </g>
        <g transform="matrix(9.745622,0,0,9.745622,-2508.973806,-5606.223078)">
            <path d="M304.099,694.052L304.099,658.261L322.532,658.261C325.95,658.261 328.562,658.554 330.369,659.14C332.176,659.726 333.632,660.813 334.739,662.399C335.846,663.986 336.399,665.919 336.399,668.198C336.399,670.183 335.976,671.896 335.13,673.337C334.283,674.777 333.12,675.945 331.638,676.84C330.694,677.41 329.401,677.882 327.757,678.256C329.075,678.696 330.035,679.136 330.637,679.575C331.044,679.869 331.634,680.496 332.408,681.457C333.181,682.418 333.697,683.159 333.958,683.68L339.304,694.052L326.804,694.052L320.896,683.115C320.148,681.699 319.48,680.779 318.894,680.356C318.097,679.803 317.193,679.526 316.184,679.526L315.208,679.526L315.208,694.052L304.099,694.052ZM315.208,672.763L319.871,672.763C320.375,672.763 321.352,672.6 322.801,672.275C323.533,672.128 324.131,671.754 324.595,671.152C325.059,670.55 325.291,669.858 325.291,669.077C325.291,667.921 324.925,667.034 324.192,666.416C323.46,665.797 322.084,665.488 320.066,665.488L315.208,665.488L315.208,672.763Z" style="fill:white;fill-rule:nonzero;"/>
        </g>
        <g transform="matrix(9.745622,0,0,9.745622,-2508.973806,-5606.223078)">
            <path d="M342.82,658.261L372.459,658.261L372.459,665.903L353.904,665.903L353.904,671.591L371.116,671.591L371.116,678.891L353.904,678.891L353.904,685.947L372.996,685.947L372.996,694.052L342.82,694.052L342.82,658.261Z" style="fill:white;fill-rule:nonzero;"/>
        </g>
        <g transform="matrix(9.745622,0,0,9.745622,-2508.973806,-5606.223078)">
            <path d="M410.74,688.828C412.123,689.788 413.027,690.39 413.45,690.634C414.085,690.992 414.939,691.407 416.013,691.879L412.937,698.081C411.391,697.332 409.861,696.441 408.347,695.407C406.834,694.374 405.776,693.597 405.174,693.076C402.732,694.134 399.672,694.663 395.994,694.663C390.558,694.663 386.269,693.247 383.128,690.415C379.417,687.062 377.561,682.35 377.561,676.279C377.561,670.387 379.185,665.809 382.432,662.546C385.679,659.283 390.216,657.651 396.043,657.651C401.984,657.651 406.569,659.246 409.8,662.436C413.031,665.626 414.646,670.192 414.646,676.132C414.646,681.422 413.344,685.654 410.74,688.828ZM402.268,683.164C403.147,681.585 403.587,679.225 403.587,676.084C403.587,672.47 402.915,669.89 401.573,668.344C400.23,666.798 398.378,666.025 396.018,666.025C393.821,666.025 392.039,666.814 390.672,668.393C389.304,669.972 388.621,672.438 388.621,675.791C388.621,679.697 389.288,682.439 390.623,684.018C391.957,685.597 393.789,686.386 396.116,686.386C396.865,686.386 397.573,686.313 398.24,686.167C397.312,685.271 395.847,684.425 393.845,683.627L395.579,679.648C396.555,679.827 397.316,680.047 397.862,680.307C398.407,680.568 399.469,681.251 401.048,682.358C401.422,682.618 401.829,682.887 402.268,683.164Z" style="fill:white;fill-rule:nonzero;"/>
        </g>
    </g>
</svg>
